HIERARCHY
ROOT Hips
{
	OFFSET 0.000000 0.000000 0.000000 
	CHANNELS 6 Xposition Yposition Zposition Zrotation Xrotation Yrotation
	JOINT Spine
	{
		OFFSET -0.000000 8.285670 0.000000 
		CHANNELS 3 Zrotation Xrotation Yrotation
		JOINT Spine1
		{
			OFFSET 0.000004 20.336878 0.000000 
			CHANNELS 3 Zrotation Xrotation Yrotation
			JOINT Neck
			{
				OFFSET -0.000000 22.301800 0.000000 
				CHANNELS 3 Zrotation Xrotation Yrotation
				JOINT Head
				{
					OFFSET 0.000009 13.562846 1.750067 
					CHANNELS 3 Zrotation Xrotation Yrotation
					End Site
					{
						OFFSET -0.000000 20.208887 0.000000 
					}
				}
			}
			JOINT LeftShoulder
			{
				OFFSET 3.887530 15.503099 -0.416373 
				CHANNELS 3 Zrotation Xrotation Yrotation
				JOINT LeftArm
				{
					OFFSET 20.767099 0.000000 0.000000 
					CHANNELS 3 Zrotation Xrotation Yrotation
					JOINT LeftForeArm
					{
						OFFSET 26.608500 0.000000 0.000000 
						CHANNELS 3 Zrotation Xrotation Yrotation
						JOINT LeftHand
						{
							OFFSET 24.545389 0.000000 0.000006 
							CHANNELS 3 Zrotation Xrotation Yrotation
							End Site
							{
								OFFSET 15.156667 0.000000 0.000000 
							}
						}
					}
				}
			}
			JOINT RightShoulder
			{
				OFFSET -4.190880 15.503099 -0.416373 
				CHANNELS 3 Zrotation Xrotation Yrotation
				JOINT RightArm
				{
					OFFSET -20.767099 0.000000 0.000000 
					CHANNELS 3 Zrotation Xrotation Yrotation
					JOINT RightForeArm
					{
						OFFSET -26.608500 0.000000 0.000000 
						CHANNELS 3 Zrotation Xrotation Yrotation
						JOINT RightHand
						{
							OFFSET -27.532768 0.000010 0.000000 
							CHANNELS 3 Zrotation Xrotation Yrotation
							End Site
							{
								OFFSET -15.156667 0.000000 0.000000 
							}
						}
					}
				}
			}
		}
	}
	JOINT LeftUpLeg
	{
		OFFSET 10.104500 0.000000 0.000000 
		CHANNELS 3 Zrotation Xrotation Yrotation
		JOINT LeftLeg
		{
			OFFSET -0.000000 -50.743301 0.000000 
			CHANNELS 3 Zrotation Xrotation Yrotation
			JOINT LeftFoot
			{
				OFFSET -0.000000 -35.579197 0.000000 
				CHANNELS 3 Zrotation Xrotation Yrotation
				JOINT LeftToeBase
				{
					OFFSET -0.000000 -6.567910 15.156700 
					CHANNELS 3 Zrotation Xrotation Yrotation
					End Site
					{
						OFFSET -0.000000 0.000000 4.041778 
					}
				}
			}
		}
	}
	JOINT RightUpLeg
	{
		OFFSET -10.104500 0.000000 0.000000 
		CHANNELS 3 Zrotation Xrotation Yrotation
		JOINT RightLeg
		{
			OFFSET -0.000000 -50.743301 0.000000 
			CHANNELS 3 Zrotation Xrotation Yrotation
			JOINT RightFoot
			{
				OFFSET -0.000000 -35.579197 0.000000 
				CHANNELS 3 Zrotation Xrotation Yrotation
				JOINT RightToeBase
				{
					OFFSET -0.000000 -6.567910 15.156700 
					CHANNELS 3 Zrotation Xrotation Yrotation
					End Site
					{
						OFFSET -0.000000 0.000000 4.041778 
					}
				}
			}
		}
	}
}
MOTION
Frames: 13
Frame Time: 0.010000
0.000000 94.280777 0.000000 -3.357810 4.930175 6.458784 0.317408 -2.538642 -2.311646 2.094270 -4.623997 -0.688386 2.956343 5.553935 -3.143420 -2.716152 -2.065970 -2.407299 -8.117856 8.612670 -2.630063 -68.422066 30.725153 -5.290076 -3.488738 2.992345 -9.573509 -16.369942 2.466119 1.631538 3.267281 3.343117 -0.569288 64.080490 35.134068 15.140178 3.441589 -7.930719 -1.749156 28.967701 -9.250109 -5.365121 8.614986 -10.712466 -1.942557 -2.640929 17.170263 -22.531940 14.264892 -15.587547 41.074146 0.000000 0.000000 0.000000 -3.649183 -6.297842 -6.012311 5.021941 10.468472 -3.038045 -0.460047 -15.211513 -7.485504 0.000000 0.000000 0.000000 
0.000357 94.281197 0.007919 -3.352745 4.927333 6.450283 0.323957 -2.524642 -2.308088 2.077195 -4.648013 -0.687481 2.957457 5.566760 -3.144894 -2.708244 -2.074735 -2.409389 -8.112452 8.614990 -2.624265 -68.425552 30.701572 -5.267344 -3.520843 2.992277 -9.591815 -16.315197 2.462597 1.638335 3.286723 3.344416 -0.576870 64.072365 35.154827 15.141377 3.437558 -7.933666 -1.751573 28.972586 -9.254331 -5.369202 8.612333 -10.701186 -1.937395 -2.653626 17.168900 -22.474339 14.260478 -15.600533 41.037746 0.000000 0.000000 0.000000 -3.651742 -6.291717 -6.002656 5.023932 10.472863 -3.038416 -0.455969 -15.217065 -7.497347 0.000000 0.000000 0.000000 
0.000704 94.281616 0.015862 -3.347705 4.924229 6.441841 0.330364 -2.510516 -2.304497 2.060339 -4.671735 -0.686510 2.958771 5.579369 -3.146471 -2.700623 -2.083405 -2.411486 -8.106995 8.617280 -2.618666 -68.428986 30.677237 -5.244856 -3.552977 2.992782 -9.609935 -16.260946 2.459623 1.645336 3.306356 3.346610 -0.584506 64.063156 35.175186 15.143690 3.433719 -7.936722 -1.753868 28.977438 -9.258629 -5.373198 8.609768 -10.689627 -1.932383 -2.666377 17.167475 -22.417149 14.256223 -15.613326 41.001667 0.000000 0.000000 0.000000 -3.654225 -6.285241 -5.993017 5.025845 10.477084 -3.038735 -0.451877 -15.222544 -7.509137 0.000000 0.000000 0.000000 
0.001028 94.282043 0.023716 -3.342797 4.921332 6.433471 0.336742 -2.496627 -2.300775 2.043588 -4.695330 -0.685570 2.960194 5.591899 -3.148078 -2.693044 -2.091968 -2.413607 -8.101619 8.619559 -2.613232 -68.432121 30.651777 -5.222622 -3.585215 2.994195 -9.627815 -16.207619 2.457508 1.652632 3.325680 3.348053 -0.592171 64.054718 35.195843 15.145138 3.429825 -7.939824 -1.756112 28.982309 -9.262947 -5.377119 8.607308 -10.678386 -1.927397 -2.678973 17.166067 -22.360682 14.251994 -15.625978 40.966076 0.000000 0.000000 0.000000 -3.656630 -6.279029 -5.983469 5.027780 10.481257 -3.038959 -0.447771 -15.227882 -7.520886 0.000000 0.000000 0.000000 
0.001320 94.282471 0.031521 -3.338037 4.918280 6.425237 0.343080 -2.482727 -2.296955 2.026987 -4.718654 -0.684642 2.961740 5.604210 -3.149722 -2.685433 -2.100271 -2.415725 -8.096076 8.621906 -2.608068 -68.435104 30.624819 -5.200864 -3.617399 2.996917 -9.645220 -16.155773 2.456637 1.660316 3.344900 3.349768 -0.599780 64.046028 35.216198 15.146852 3.426150 -7.942999 -1.758220 28.987062 -9.267315 -5.380897 8.604980 -10.667038 -1.922400 -2.691201 17.164606 -22.305304 14.247858 -15.638507 40.930908 0.000000 0.000000 0.000000 -3.658809 -6.272676 -5.973976 5.029462 10.485333 -3.039410 -0.443396 -15.233185 -7.532120 0.000000 0.000000 0.000000 
0.001568 94.282928 0.039223 -3.333488 4.915333 6.417178 0.349389 -2.468975 -2.293034 2.010505 -4.741707 -0.683682 2.964016 5.616090 -3.151505 -2.678671 -2.108153 -2.417799 -8.090378 8.624285 -2.603249 -68.437805 30.596325 -5.179718 -3.649435 3.001031 -9.662034 -16.105801 2.457117 1.668455 3.364006 3.351717 -0.607362 64.037163 35.236214 15.148827 3.422602 -7.946250 -1.760234 28.991802 -9.271703 -5.384502 8.602853 -10.655932 -1.917477 -2.703178 17.163094 -22.251348 14.243780 -15.650602 40.896603 0.000000 0.000000 0.000000 -3.660837 -6.266438 -5.964672 5.031151 10.489213 -3.039608 -0.438987 -15.238175 -7.543312 0.000000 0.000000 0.000000 
0.001774 94.283401 0.046833 -3.329149 4.912219 6.409331 0.355512 -2.455255 -2.289049 1.994415 -4.764283 -0.682614 2.966419 5.627657 -3.153361 -2.671836 -2.115733 -2.419914 -8.084696 8.626692 -2.598797 -68.440147 30.566641 -5.159301 -3.681041 3.006576 -9.678286 -16.058193 2.458931 1.677143 3.382770 3.353461 -0.614940 64.028549 35.256252 15.150546 3.419104 -7.949696 -1.762100 28.996473 -9.276212 -5.387840 8.600939 -10.644784 -1.912679 -2.714786 17.161491 -22.199085 14.239873 -15.662376 40.863266 0.000000 0.000000 0.000000 -3.662593 -6.260045 -5.955557 5.032560 10.492911 -3.039945 -0.434348 -15.242985 -7.553852 0.000000 0.000000 0.000000 
0.001919 94.283890 0.054329 -3.325073 4.909015 6.401732 0.361459 -2.441640 -2.284903 1.978716 -4.786310 -0.681487 2.969327 5.638784 -3.155367 -2.665463 -2.122928 -2.422041 -8.079002 8.629107 -2.594872 -68.442177 30.536366 -5.139677 -3.711731 3.013256 -9.693757 -16.013519 2.461915 1.686229 3.401400 3.355463 -0.622473 64.019493 35.275749 15.152554 3.415953 -7.953219 -1.763710 29.000973 -9.280746 -5.390943 8.599272 -10.633698 -1.907982 -2.725950 17.159824 -22.148756 14.236112 -15.673792 40.831028 0.000000 0.000000 0.000000 -3.664000 -6.253572 -5.946685 5.033613 10.496378 -3.040446 -0.429389 -15.247550 -7.563663 0.000000 0.000000 0.000000 
0.002008 94.284393 0.061676 -3.321285 4.905787 6.394414 0.367347 -2.428173 -2.280622 1.963296 -4.807847 -0.680353 2.972931 5.649459 -3.157540 -2.659904 -2.129615 -2.424097 -8.073222 8.631584 -2.591360 -68.443970 30.506584 -5.120959 -3.741053 3.020653 -9.708415 -15.972168 2.465644 1.695596 3.419195 3.356461 -0.629938 64.011734 35.295277 15.153384 3.412970 -7.956800 -1.765176 29.005306 -9.285271 -5.393836 8.597911 -10.622772 -1.903527 -2.736739 17.158089 -22.100521 14.232495 -15.684865 40.800064 0.000000 0.000000 0.000000 -3.665136 -6.247108 -5.938107 5.034543 10.499614 -3.040925 -0.424464 -15.251856 -7.572967 0.000000 0.000000 0.000000 
0.002022 94.284927 0.068882 -3.317846 4.902489 6.387403 0.373097 -2.414885 -2.276145 1.948290 -4.828746 -0.679229 2.976724 5.659613 -3.159773 -2.654221 -2.135786 -2.426217 -8.067216 8.634094 -2.588399 -68.445778 30.478046 -5.103240 -3.768475 3.028357 -9.722124 -15.934560 2.469831 1.705070 3.436675 3.357858 -0.637254 64.003685 35.314121 15.154595 3.410375 -7.960501 -1.766393 29.009415 -9.289835 -5.396409 8.596864 -10.611997 -1.899101 -2.746880 17.156301 -22.054670 14.228805 -15.695580 40.770256 0.000000 0.000000 0.000000 -3.665880 -6.240583 -5.929775 5.035186 10.502582 -3.041352 -0.419417 -15.255830 -7.581682 0.000000 0.000000 0.000000 
0.001963 94.285477 0.075916 -3.314756 4.899169 6.380733 0.378727 -2.401801 -2.271598 1.933705 -4.848977 -0.677995 2.981191 5.669387 -3.162189 -2.649289 -2.141719 -2.428334 -8.061307 8.636644 -2.585932 -68.447289 30.451574 -5.086520 -3.793619 3.036051 -9.734999 -15.901022 2.474126 1.714609 3.453664 3.359106 -0.644473 63.995907 35.332821 15.155580 3.407743 -7.964437 -1.767422 29.013485 -9.294518 -5.398607 8.596150 -10.601386 -1.894765 -2.756496 17.154396 -22.011326 14.225266 -15.705956 40.741871 0.000000 0.000000 0.000000 -3.666254 -6.234096 -5.921728 5.035583 10.505316 -3.041900 -0.414355 -15.259482 -7.589664 0.000000 0.000000 0.000000 
0.001825 94.286041 0.082764 -3.312029 4.895917 6.374412 0.384198 -2.389015 -2.266947 1.919639 -4.868522 -0.676749 2.985861 5.678710 -3.164681 -2.644473 -2.147233 -2.430458 -8.055248 8.639192 -2.583961 -68.448792 30.427252 -5.070813 -3.816509 3.043660 -9.746967 -15.871544 2.478496 1.724141 3.469852 3.359802 -0.651488 63.988907 35.351044 15.155897 3.405506 -7.968402 -1.768208 29.017221 -9.299155 -5.400520 8.595751 -10.591105 -1.890556 -2.765474 17.152439 -21.970512 14.221717 -15.716093 40.714874 0.000000 0.000000 0.000000 -3.666219 -6.227733 -5.914192 5.035595 10.507858 -3.042459 -0.409246 -15.262863 -7.596727 0.000000 0.000000 0.000000 
0.001623 94.286636 0.089466 -3.309598 4.892433 6.368464 0.389469 -2.376215 -2.262230 1.906068 -4.887371 -0.675472 2.991293 5.687511 -3.167361 -2.640579 -2.152351 -2.432552 -8.049409 8.641746 -2.582429 -68.449966 30.405266 -5.056141 -3.837044 3.051051 -9.757965 -15.846095 2.482859 1.733572 3.486050 3.361215 -0.658303 63.980984 35.368561 15.156954 3.403536 -7.972580 -1.768773 29.020710 -9.303901 -5.402034 8.595688 -10.580792 -1.886762 -2.774020 17.150383 -21.932240 14.218104 -15.725886 40.689377 0.000000 0.000000 0.000000 -3.665843 -6.221161 -5.906910 5.035349 10.510150 -3.043241 -0.404213 -15.265965 -7.602937 0.000000 0.000000 0.000000 
